<svg xmlns="http://www.w3.org/2000/svg" viewBox="0 0 529.06 128.6"><defs><style>.cls-1{fill:#fff;}.cls-2{fill:#231f20;}.cls-3,.cls-4{fill:#97a23a;}.cls-4{stroke:#fff;stroke-miterlimit:10;stroke-width:3px;}</style></defs><g id="Layer_2" data-name="Layer 2"><g id="Layer_2-2" data-name="Layer 2"><path class="cls-1" d="M93.8,22.93a8.06,8.06,0,0,1-5.13,4.49A17.91,17.91,0,0,1,83,28c-1.23,0-1.68.25-2.05,1.32a28.39,28.39,0,0,1-1.17,2.75c-.18.37-.35.73-.51,1.1l-.14.3-.3-.15c-.51-.26-1-.54-1.52-.81l-.09-.05L76.38,32l-.7-.38a0,0,0,0,1,0,0,42.18,42.18,0,0,0-4.83-2.36,33.64,33.64,0,0,0-3.44-1.11c-.58-.17-1.17-.32-1.76-.48l-.78-.2-1.39-.36h0l-1.12-.31-.27-.07-.35-.1,2.49-5.59c-1.85-1.58-3.47-3.22-4-5.19a7,7,0,0,1,.16-6.76C62.05,5.66,64.59,4.47,69.05,5,72,.39,75.54-1,80.33.69c4.31,1.5,6,5,5.44,11,3.64-.31,6.28,1.12,7.83,4.28A8.27,8.27,0,0,1,93.8,22.93Z"/><circle class="cls-1" cx="49.4" cy="79.2" r="49.4"/><g id="IMOT2p"><path class="cls-1" d="M48.32,34.32A44.88,44.88,0,1,0,93.2,79.2,44.88,44.88,0,0,0,48.32,34.32Z"/><path class="cls-2" d="M48.31,124.55a45.36,45.36,0,0,1,0-90.71h0a45.36,45.36,0,1,1,0,90.71Zm0-89.76a44.41,44.41,0,0,0,0,88.81h0a44.41,44.41,0,0,0,0-88.81Z"/><path class="cls-3" d="M48.32,34.32A44.88,44.88,0,1,1,3.44,79.2,44.88,44.88,0,0,1,48.32,34.32Zm-5.21,9.56-.44-.44a10.91,10.91,0,0,1,1.41-1.68c.41-.35,1.17-.32,1.54-.69,2.61-2.63,5.63-2.14,8.72-1.28.15,0,.24.26.44.48l-1.43.3c.5.44,1.26.64,1.42.41C56,39.25,58,39.71,59.53,39.09c-.52-1.76-1.5-2.57-3.38-1.27l.83,1a3.23,3.23,0,0,1-1.48-1.2c-.51-.59-1-1.58-1.63-1.64-2.84-.31-5.7-.36-7.61-.46-2.92,3.19-6.37,3.4-9.11,4.82l.61.19c-3.39-.88-5.93,1.27-8.8,2.49l-.76-1.11c-3.87,1.76-5.64,6.12-9.92,7.27-1,.28-2,1.65-2.58,2.73-2.51,4.36-4.88,8.8-7.3,13.21-.23.42-.4,1-.77,1.2-1.64.78-1.92,1.5-1.06,3.16.17.32.41.77.31,1-1.29,3.29.36,6.36.66,9.53A8.16,8.16,0,0,0,11,86a3.14,3.14,0,0,1,1.24,3.7c-.94,2.56-.14,4.88.32,7.3a10,10,0,0,1-.19,2.65,7.81,7.81,0,0,0,1.11,3.08,25.18,25.18,0,0,0,3.31,4.62c2.17,2.13,4.62,4,7,6,.2.17.45.31.55.53a7.17,7.17,0,0,0,7.38,4.59,16.13,16.13,0,0,1,2.63.41c4.28.65,8.57,1.24,12.84,2C54,121.9,60.41,119.48,67,118.6a3.87,3.87,0,0,0,1.22-.54C78.72,112.52,86,104.18,89.65,92.9a46.43,46.43,0,0,0,2.19-12.08c.16-3.63-.68-7.32-1.28-10.95a6.39,6.39,0,0,0-3.62-4.79c.13,3.18.29,6.19.35,9.19,0,.5-.41,1-.75,1.75-1.1-2.68-1.78-5.06-3-7.11A37.79,37.79,0,0,0,79,63.55c-.15-.17-.6-.06-.91-.1-2.3-.28-4.63-.42-6.88-.91-1-.22-1.84-1.14-2.76-1.75l-.53.34a7.21,7.21,0,0,0,.82,1.67c.44.51,1.37.74,1.61,1.29.92,2.2,1.87,1.13,2.75.16a9.89,9.89,0,0,1,1.94,1.28c.42.44.93,1.22.8,1.69a5.85,5.85,0,0,1-1.49,3c-2.12,1.7-4.48,3.1-6.33,4.35l-8.61-12.8-.52.12c-.12.53-.52,1.21-.33,1.57,1.29,2.41,2.83,4.7,4,7.15.85,1.72,2.75,2.54,3.5,4,1.13,2.18,2.33,1.94,4,1.22a18.92,18.92,0,0,1,2.13-.62,7.38,7.38,0,0,1,0,1.34,14.06,14.06,0,0,1-3.83,7.13c-2.72,2.76-6,5.29-3.86,10.22a3.93,3.93,0,0,1-2.23,5.27c-1.44.62-2.94,1.61-2.26,3.74a1.13,1.13,0,0,1-.27.89c-1,1.15-2.12,2.18-3,3.4-2,2.74-5,3.06-8,3.37-.47,0-1.11-.85-1.53-1.41a18.58,18.58,0,0,1-1-1.93c-.48-.85-1.06-1.66-1.5-2.53a21.87,21.87,0,0,0-1.68-3.59,3.87,3.87,0,0,1-.47-4.64c1.94-3,.06-5.51-1.31-7.6-1.1-1.68-1.87-2.8-.95-4.71.19-.4-.27-1.28-.66-1.74-.21-.24-.93,0-1.39-.1s-1.46-.34-1.5-.62c-.2-1.5-1.21-1.48-2.26-1.35a49.05,49.05,0,0,0-6.3.93c-1.23.31-1.82-.25-2.7-.8-2-1.26-2.35-3.52-3.42-5.33-.39-.65-.86-1.72-.59-2.23,1.39-2.6.2-6.06,2.82-8.21.94-.76,1.82-1.6,2.7-2.42.55-.52,1.08-1.06,1.58-1.62.66-.73,1.33-1.44,1.91-2.22,1.06-1.41,2.53-.79,3.88-1,2.53-.33,5-.93,7.9-1.5l-.49,2.77,5.73,2.48c1.19-.69,2.3-1.74,2.71-1.51,2.67,1.46,5.42.34,8.25.73l.8-4.34c-2.88.54-5.27,1-6.83-1.67-.16-.27-.91-.31-1.35-.23-.19,0-.23.67-.4,1s-.51.85-1,1.58c-.78-3.07-2.63-4.7-4.63-6.19a1.21,1.21,0,0,0-.81,0c-.1.39-.26,1-.07,1.18.81.85,1.74,1.59,2.65,2.38l-.51,1.42c-1.36-1.43-2.68-2.85-4-4.21-.12-.13-.58.06-.87.14a6.58,6.58,0,0,1-1.23.41,5.8,5.8,0,0,0-4.44,2.83,3.06,3.06,0,0,1-4.2,1.09,1.34,1.34,0,0,1-.61-.92,3.25,3.25,0,0,1,3.36-3c.71,0,1.78-.07,2-.5a5.48,5.48,0,0,0,.29-2.34c2.28-1.51,5.44-1.82,7.19-4.81l.27,1.43c3.46,1.18,5.25-1.7,7.75-3.13H49.14l-.42-.81,1.81-.63c-3.42-.65-2.45,3.46-4.84,3.89l-.86-1.74Z"/><path class="cls-1" d="M48.31,124.9a45.71,45.71,0,0,1,0-91.41h0a45.71,45.71,0,1,1,0,91.41Zm-18.77-5.83a43.94,43.94,0,0,0,18.77,4.17h0a44,44,0,0,0,17.61-3.64c-1.58.25-3.17.58-4.71.89-4.58.94-9.31,1.91-14.24,1.08-2.87-.48-5.8-.92-8.63-1.33l-4.19-.63c-.33,0-.64-.12-.95-.18a6.72,6.72,0,0,0-1.54-.22A9.83,9.83,0,0,1,29.54,119.07Zm2.22-1.52a8.14,8.14,0,0,1,1.8.26c.3.06.57.12.85.16l4.18.63c2.84.42,5.78.85,8.67,1.33,4.62.78,9-.11,13.63-1.06,2-.4,4-.82,6-1.09a2.33,2.33,0,0,0,.65-.29l.29-.16c10.44-5.52,17.51-13.82,21-24.68A45.54,45.54,0,0,0,91,80.78a40.32,40.32,0,0,0-.91-8.7c-.12-.7-.25-1.38-.36-2.07a6,6,0,0,0-1.91-3.43c0,.28,0,.56,0,.83.1,2.36.2,4.59.25,6.85a2.91,2.91,0,0,1-.5,1.46c-.11.2-.22.41-.32.64l-.79,1.76-.73-1.78c-.36-.86-.67-1.68-1-2.48a27.14,27.14,0,0,0-2-4.52,23.92,23.92,0,0,0-3.15-3.88c-.35-.39-.72-.78-1.07-1.18h-.07a2,2,0,0,1-.49,0l-1.94-.21-2-.22.15.08a5.9,5.9,0,0,1,1.46,1c.22.22,1.29,1.41,1,2.47a6.39,6.39,0,0,1-1.77,3.43c-1.58,1.26-3.28,2.36-4.79,3.34-.57.36-1.1.71-1.6,1l-.36.23a3.49,3.49,0,0,0,1.68-.43,9.9,9.9,0,0,1,1.46-.45l.77-.21,1.06-.3v1.1c0,.15,0,.3,0,.44a3.94,3.94,0,0,1,0,1.08,14.93,14.93,0,0,1-4,7.53c-.25.26-.51.52-.77.77-2.49,2.46-4.64,4.58-2.92,8.53a4.79,4.79,0,0,1-2.66,6.37c-1.71.74-2.2,1.48-1.8,2.73a2,2,0,0,1-.43,1.68c-.39.45-.8.89-1.2,1.31a22.06,22.06,0,0,0-1.77,2c-2.23,3-5.58,3.4-8.55,3.7-.92.1-1.65-.89-2.24-1.69l0-.05a7,7,0,0,1-.72-1.31,7.62,7.62,0,0,0-.34-.7c-.19-.34-.39-.66-.61-1-.31-.5-.63-1-.91-1.57s-.43-1-.61-1.44a8.19,8.19,0,0,0-1-2A4.71,4.71,0,0,1,42,96c1.54-2.4.22-4.4-1.06-6.33l-.29-.44c-1.09-1.66-2-3.11-1-5.36a2.33,2.33,0,0,0-.36-.75l-.16,0a2.93,2.93,0,0,1-.93,0c-1-.23-2-.47-2.13-1.32-.08-.62-.16-.78-1.34-.64l-1.3.15a38.13,38.13,0,0,0-4.9.76,3.47,3.47,0,0,1-3-.68l-.33-.22a7.75,7.75,0,0,1-2.9-4,16,16,0,0,0-.8-1.66c-.43-.74-1.09-2.11-.6-3a9,9,0,0,0,.75-3.12c.21-1.8.45-3.84,2.28-5.34.85-.69,1.67-1.46,2.47-2.21l.19-.18c.48-.45,1-1,1.53-1.57l.24-.26c.58-.64,1.13-1.25,1.62-1.9a3,3,0,0,1,1.77-1.18,3.36,3.36,0,0,1-.49-.27,2.19,2.19,0,0,1-1-1.63,4.09,4.09,0,0,1,4.15-3.79h.05a3.8,3.8,0,0,0,1.35-.16,3.29,3.29,0,0,0,.13-1.19c0-.25,0-.5,0-.74l0-.4.33-.22a16.89,16.89,0,0,1,2.55-1.28,9.8,9.8,0,0,0,3.83-2.45l-1.15-1.11.48-.59.39-.5a7.22,7.22,0,0,1,1.13-1.3,2.73,2.73,0,0,1,1.07-.48,2.2,2.2,0,0,0,.43-.16c3-3,6.48-2.34,9.53-1.49a1.22,1.22,0,0,1,.62.46,4.28,4.28,0,0,1,.6-.31,5.36,5.36,0,0,1-.75-.77l-.16-.18c-.17-.19-.32-.41-.48-.61a3.25,3.25,0,0,0-.65-.76c-2.12-.23-4.26-.32-6-.39l-1.16,0A15.07,15.07,0,0,1,40.19,40a21.85,21.85,0,0,0-2.55,1l-.09.31c-2.26-.59-4.16.4-6.17,1.43-.68.35-1.38.71-2.1,1l-.62.27L27.93,43a16.78,16.78,0,0,0-3.52,3c-1.65,1.65-3.35,3.36-5.91,4-.4.1-1.08.6-2.08,2.35-1.78,3.09-3.52,6.28-5.21,9.37-.69,1.27-1.38,2.55-2.08,3.82-.06.1-.11.21-.16.31a2.27,2.27,0,0,1-1,1.24c-.62.29-1,.55-1,.77a2.05,2.05,0,0,0,.37,1.26l0,0a2.07,2.07,0,0,1,.32,1.68c-.79,2-.33,4,.15,6.08A23.91,23.91,0,0,1,8.37,80a7.32,7.32,0,0,0,3.1,5.28A4,4,0,0,1,13,89.93c-.69,1.9-.3,3.7.1,5.61.09.41.18.83.26,1.26a6.1,6.1,0,0,1-.07,2.09c0,.24-.07.47-.1.69a7.18,7.18,0,0,0,1,2.66c.16.24.31.49.47.74a19.86,19.86,0,0,0,2.72,3.73c1.49,1.47,3.16,2.83,4.77,4.15.71.58,1.43,1.17,2.14,1.77l.12.1a1.85,1.85,0,0,1,.65.72,6.33,6.33,0,0,0,6.59,4.11ZM5.45,69A44.32,44.32,0,0,0,4.27,79.2a43.76,43.76,0,0,0,12.9,31.15,44.34,44.34,0,0,0,8,6.32,9.73,9.73,0,0,1-1.59-2.5,1,1,0,0,0-.15-.12l-.19-.16-2.12-1.74c-1.64-1.35-3.34-2.74-4.88-4.26a20.92,20.92,0,0,1-3-4l-.46-.73a8.64,8.64,0,0,1-1.23-3.41v-.18c0-.3.08-.6.12-.89a4.59,4.59,0,0,0,.08-1.54c-.07-.4-.16-.82-.25-1.22-.44-2-.89-4.17,0-6.52a2.32,2.32,0,0,0-1-2.75,8.89,8.89,0,0,1-3.76-6.46,22,22,0,0,0-.54-2.86c-.51-2.2-1-4.48-.12-6.94a4.09,4.09,0,0,0-.2-.42l0-.05A7.06,7.06,0,0,1,5.45,69ZM39.37,81.46a1.25,1.25,0,0,1,1,.4c0,.06,1.3,1.54.78,2.64-.68,1.4-.25,2.14.85,3.82l.28.43c1.35,2,3.2,4.84,1.08,8.15a3.09,3.09,0,0,0,.43,3.69A9.62,9.62,0,0,1,45,103c.18.46.35.89.55,1.29s.54,1,.84,1.44.44.7.64,1.06a9.09,9.09,0,0,1,.41.83,5.32,5.32,0,0,0,.55,1l0,.06a7,7,0,0,0,.87,1c2.82-.29,5.49-.6,7.25-3a23.82,23.82,0,0,1,1.9-2.2c.39-.41.79-.83,1.15-1.25a.49.49,0,0,0,.08-.18c-.61-2,.31-3.61,2.75-4.67a3.15,3.15,0,0,0,1.8-4.18c-2.18-5,.72-7.86,3.28-10.38l.75-.75a13.31,13.31,0,0,0,3.61-6.72s0-.07,0-.1a6.93,6.93,0,0,0-1,.32c-1.77.74-3.61,1.23-5.08-1.61A6.2,6.2,0,0,0,64,73.41,8.26,8.26,0,0,1,61.89,71c-.67-1.36-1.46-2.71-2.23-4-.61-1-1.23-2.06-1.79-3.12A2,2,0,0,1,58,62.13c.06-.17.12-.32.15-.44l.11-.47a16.39,16.39,0,0,0-2.71,0,10,10,0,0,1-5.37-.7,8.19,8.19,0,0,0-.88.58c-.38.26-.8.55-1.24.81l-.36.21L41,59.23,41.36,57,40,57.29c-1.88.39-3.65.76-5.44,1a7.12,7.12,0,0,1-1.3,0c-1,0-1.55,0-2,.62s-1.14,1.37-1.73,2l-.23.26c-.58.64-1.11,1.18-1.63,1.67l-.19.18c-.82.76-1.66,1.56-2.55,2.28-1.31,1.07-1.48,2.55-1.69,4.25a10.06,10.06,0,0,1-.91,3.68,3.5,3.5,0,0,0,.55,1.45,14.77,14.77,0,0,1,.89,1.84A6.27,6.27,0,0,0,26,79.75l.37.24c.66.43,1,.64,1.7.46a39.43,39.43,0,0,1,5.12-.8l1.29-.15c.74-.09,2.65-.32,3.12,1.74.18.07.49.15.92.26a3.26,3.26,0,0,0,.41,0ZM59.3,103ZM78.67,62.62a1.22,1.22,0,0,1,1,.38l1.22,1.33a25.9,25.9,0,0,1,3.35,4.15,28.29,28.29,0,0,1,2.14,4.8l.07.19c0-2-.14-3.92-.23-6,0-.79-.06-1.58-.1-2.38l0-1.24,1.17.43a7.06,7.06,0,0,1,3.9,4.43,44.13,44.13,0,0,0-36.2-33.09,6.16,6.16,0,0,1,.81,1l.25.34a2.91,2.91,0,0,1,2.5-.46,3.2,3.2,0,0,1,1.83,2.39l.21.71-.69.29a5.15,5.15,0,0,1-.76.24l.3.37-.83-.26-.52.08a5.68,5.68,0,0,0-1.75.45l0,.06-.26.06a2.2,2.2,0,0,0-.62.6,1.09,1.09,0,0,1-.58.4l-2.48,1.41a14.92,14.92,0,0,0-1.84,1.31c-1.71,1.35-3.64,2.88-6.59,1.88l-.45-.16,0-.11a12.38,12.38,0,0,1-4,2.4,18.38,18.38,0,0,0-1.94.93v.18a4,4,0,0,1-.39,2.12c-.14.23-.57.92-2.76.9h0a2.44,2.44,0,0,0-2.49,2.11,1,1,0,0,0,.24.27,2.25,2.25,0,0,0,3.06-.88A6.56,6.56,0,0,1,40.28,51a1.91,1.91,0,0,0,.49-.17,5.09,5.09,0,0,1,.56-.21l.15,0a1.4,1.4,0,0,1,1.53.11l.43.42a5,5,0,0,1,.14-.71l0-.08a.88.88,0,0,1,.56-.61,2,2,0,0,1,1.56.17,12.57,12.57,0,0,1,4.34,4.92v0a3.4,3.4,0,0,0,.1-.33c.1-.4.26-1,.89-1.12.07,0,1.68-.28,2.22.63,1.2,2.06,2.86,1.85,5.94,1.28l1.19-.22-.21,1.18-.86,4.69.48-.11,8.46,12.59.94-.61c1.47-1,3.14-2,4.65-3.23A5.39,5.39,0,0,0,75.07,67a2.33,2.33,0,0,0-.59-.94,4.6,4.6,0,0,0-1.08-.73l-.11-.07a2.28,2.28,0,0,1-2,.89c-1-.18-1.55-1.38-1.72-1.77a2.34,2.34,0,0,0-.5-.35,3.64,3.64,0,0,1-1-.73A4.84,4.84,0,0,1,67.41,62c-.07-.18-.13-.34-.2-.49l-.31-.67,1.6-1,.45.29c.31.21.61.44.9.67a4.46,4.46,0,0,0,1.58,1,46,46,0,0,0,4.83.68l2,.22h.44ZM22.35,73.24Zm37-10.08c.54,1,1.13,2,1.7,3,.79,1.33,1.6,2.7,2.3,4.11a6.89,6.89,0,0,0,1.7,1.94,11.46,11.46,0,0,1,1,1l-6.7-10ZM91.43,70c.09.58.2,1.16.3,1.75.07.38.14.77.2,1.16C91.8,72,91.63,71,91.43,70Zm-46-34.8a44.09,44.09,0,0,0-39.2,31,5.75,5.75,0,0,1,1-.62,3.06,3.06,0,0,0,.24-.45l.2-.42c.7-1.27,1.4-2.54,2.09-3.81,1.69-3.1,3.43-6.3,5.22-9.41.67-1.17,1.72-2.76,3.09-3.12,2.13-.58,3.6-2,5.16-3.62a15.92,15.92,0,0,1,4.63-3.6l.63-.29L29.25,42c.46-.22.92-.46,1.37-.69,1.92-1,3.9-2,6.29-1.76a21.87,21.87,0,0,1,2.73-1.09A13.65,13.65,0,0,0,45.4,35.24ZM70.84,63.29a1.66,1.66,0,0,1,.31.48,2.11,2.11,0,0,0,.46.77,4.2,4.2,0,0,0,.9-.83l.07-.08c-.51-.08-1-.17-1.51-.28Zm-28-5.06,4.73,2.05.77-.52c.94-.66,1.69-1.19,2.41-.79a8.31,8.31,0,0,0,4.69.61,20.37,20.37,0,0,1,2.48,0l.45-2.41c-2.44.4-4.81.45-6.41-2.11l-.2,0a3.32,3.32,0,0,1-.2.58c-.17.33-.36.63-.6,1-.12.18-.24.38-.39.62l-1,1.67L49.05,57a8.33,8.33,0,0,0-1.23-2.74l-1,2.84-.92-1L45,55.19c-1-1-1.93-2-2.91-3l-.12,0-.19.06a2.48,2.48,0,0,0-.37.14,2.94,2.94,0,0,1-1,.29,5,5,0,0,0-3.81,2.48,4.57,4.57,0,0,1-1.48,1.37c1.5-.22,3-.54,4.61-.87.81-.17,1.65-.35,2.53-.52l1.18-.23Zm2.38-7.48ZM48.46,43l-.17.35a7.46,7.46,0,0,1-.66,1.24,12.3,12.3,0,0,0,1.77-1.25h-.76Zm-3.22-.81.83,1.68a3.92,3.92,0,0,0,.71-1.21,6.74,6.74,0,0,1,.79-1.38l0,0,.06,0a2.91,2.91,0,0,1,3.07-1l1.41.27-.52-.47.16,0a5.83,5.83,0,0,0-5.52,1.6,2.42,2.42,0,0,1-1.15.58,1.7,1.7,0,0,0-.45.17.28.28,0,0,0-.1.09Zm6-.5h2.39a3,3,0,0,1-.86-.54h0Zm6.15-3.65.46.57.54-.1a1,1,0,0,0-.48-.5A.8.8,0,0,0,57.42,38.07Z"/><path class="cls-1" d="M43.11,43.88l1.72-.63L45.69,45c2.39-.43,1.42-4.54,4.84-3.89l-1.81.63.42.81H52c-2.5,1.43-4.29,4.31-7.75,3.13L44,44.24c-1.75,3-4.91,3.3-7.19,4.81a5.48,5.48,0,0,1-.29,2.34c-.26.43-1.33.51-2,.5a3.25,3.25,0,0,0-3.36,3,1.34,1.34,0,0,0,.61.92,3.06,3.06,0,0,0,4.2-1.09,5.8,5.8,0,0,1,4.44-2.83,6.58,6.58,0,0,0,1.23-.41c.29-.08.75-.27.87-.14,1.37,1.36,2.69,2.78,4,4.21L47,54.11c-.91-.79-1.84-1.53-2.65-2.38-.19-.2,0-.79.07-1.18a1.21,1.21,0,0,1,.81,0c2,1.49,3.85,3.12,4.63,6.19.45-.73.73-1.14,1-1.58s.21-1,.4-1c.44-.08,1.19,0,1.35.23,1.56,2.66,3.95,2.21,6.83,1.67l-.8,4.34c-2.83-.39-5.58.73-8.25-.73-.41-.23-1.52.82-2.71,1.51L41.9,58.73,42.39,56c-2.88.57-5.37,1.17-7.9,1.5-1.35.18-2.82-.44-3.88,1-.58.78-1.25,1.49-1.91,2.22-.5.56-1,1.1-1.58,1.62-.88.82-1.76,1.66-2.7,2.42C21.8,66.84,23,70.3,21.6,72.9c-.27.51.2,1.58.59,2.23,1.07,1.81,1.38,4.07,3.42,5.33.88.55,1.47,1.11,2.7.8a49.05,49.05,0,0,1,6.3-.93c1-.13,2.06-.15,2.26,1.35,0,.28,1,.5,1.5.62s1.18-.14,1.39.1c.39.46.85,1.34.66,1.74-.92,1.91-.15,3,.95,4.71,1.37,2.09,3.25,4.57,1.31,7.6a3.87,3.87,0,0,0,.47,4.64,21.87,21.87,0,0,1,1.68,3.59c.44.87,1,1.68,1.5,2.53a18.58,18.58,0,0,0,1,1.93c.42.56,1.06,1.45,1.53,1.41,3-.31,6-.63,8-3.37.89-1.22,2-2.25,3-3.4a1.13,1.13,0,0,0,.27-.89c-.68-2.13.82-3.12,2.26-3.74a3.93,3.93,0,0,0,2.23-5.27c-2.15-4.93,1.14-7.46,3.86-10.22a14.06,14.06,0,0,0,3.83-7.13,7.38,7.38,0,0,0,0-1.34,18.92,18.92,0,0,0-2.13.62c-1.7.72-2.9,1-4-1.22-.75-1.45-2.65-2.27-3.5-4-1.21-2.45-2.75-4.74-4-7.15-.19-.36.21-1,.33-1.57l.52-.12,8.61,12.8c1.85-1.25,4.21-2.65,6.33-4.35a5.85,5.85,0,0,0,1.49-3c.13-.47-.38-1.25-.8-1.69a9.89,9.89,0,0,0-1.94-1.28c-.88,1-1.83,2-2.75-.16-.24-.55-1.17-.78-1.61-1.29A7.21,7.21,0,0,1,68,61.13l.53-.34c.92.61,1.76,1.53,2.76,1.75,2.25.49,4.58.63,6.88.91.31,0,.76-.07.91.1a37.79,37.79,0,0,1,4.48,5.36c1.24,2,1.92,4.43,3,7.11.34-.75.76-1.25.75-1.75-.06-3-.22-6-.35-9.19a6.39,6.39,0,0,1,3.62,4.79c.6,3.63,1.44,7.32,1.28,10.95A46.43,46.43,0,0,1,89.65,92.9C86,104.18,78.72,112.52,68.24,118.06a3.87,3.87,0,0,1-1.22.54c-6.61.88-13.06,3.3-19.9,2.15-4.27-.72-8.56-1.31-12.84-2a16.13,16.13,0,0,0-2.63-.41,7.17,7.17,0,0,1-7.38-4.59c-.1-.22-.35-.36-.55-.53-2.33-2-4.78-3.83-6.95-6a25.18,25.18,0,0,1-3.31-4.62,7.81,7.81,0,0,1-1.11-3.08A10,10,0,0,0,12.54,97c-.46-2.42-1.26-4.74-.32-7.3A3.14,3.14,0,0,0,11,86a8.16,8.16,0,0,1-3.44-5.88c-.3-3.17-1.95-6.24-.66-9.53.1-.27-.14-.72-.31-1-.86-1.66-.58-2.38,1.06-3.16.37-.17.54-.78.77-1.2,2.42-4.41,4.79-8.85,7.3-13.21.62-1.08,1.54-2.45,2.58-2.73,4.28-1.15,6-5.51,9.92-7.27L29,43c2.87-1.22,5.41-3.37,8.8-2.49l-.61-.19c2.74-1.42,6.19-1.63,9.11-4.82,1.91.1,4.77.15,7.61.46.6.06,1.12,1,1.63,1.64A3.23,3.23,0,0,0,57,38.84l-.83-1c1.88-1.3,2.86-.49,3.38,1.27-1.5.62-3.53.16-4.76,1.89-.16.23-.92,0-1.42-.41l1.43-.3c-.2-.22-.29-.44-.44-.48-3.09-.86-6.11-1.35-8.72,1.28-.37.37-1.13.34-1.54.69a10.91,10.91,0,0,0-1.41,1.68Zm28,51c-1.14,1-2.26,2-3.39,3-.23.21-.61.34-.7.59a31.34,31.34,0,0,0-1.27,4,1.8,1.8,0,0,0,.58,1.45,1.37,1.37,0,0,0,1.31-.25q1.95-3.8,3.67-7.67C71.48,95.64,71.16,95.07,71.12,94.89ZM39,43.31c-.62.58-1.13.83-1.25,1.21a27.21,27.21,0,0,0-.61,2.87c2.2,0,2.17,0,1.67-2.12A7.46,7.46,0,0,1,39,43.31Z"/><path class="cls-3" d="M71.12,94.89c0,.18.36.75.2,1.11q-1.72,3.87-3.67,7.67a1.37,1.37,0,0,1-1.31.25,1.8,1.8,0,0,1-.58-1.45,31.34,31.34,0,0,1,1.27-4c.09-.25.47-.38.7-.59C68.86,96.9,70,95.9,71.12,94.89Z"/><path class="cls-3" d="M39,43.31a7.46,7.46,0,0,0-.19,2c.5,2.12.53,2.11-1.67,2.12a27.21,27.21,0,0,1,.61-2.87C37.91,44.14,38.42,43.89,39,43.31Z"/></g><path class="cls-3" d="M69.84,6.69C72.46,2.4,75.6,1.15,80,2.67,83.87,4,85.36,7.18,84.71,12.8c3.25-.39,5.79.74,7.26,3.73a7.15,7.15,0,0,1-4.35,10.13,16.17,16.17,0,0,1-5.1.53,1.82,1.82,0,0,0-2.17,1.42c-.42,1.23-1,2.39-1.53,3.5-2.49-1.28-4.85-2.74-7.38-3.74S66.15,26.82,63.36,26l2.42-5.44C62.52,17.82,59.64,14.9,62,10.25,63.52,7.1,65.84,6.15,69.84,6.69Zm14,7.1c-.32-7.28-1.76-9.46-6.63-10-3.83-.44-6,1.3-7.37,6.27L69.64,7.7a5.11,5.11,0,0,0-5.81,2.05,5.51,5.51,0,0,0-.56,6.71c1.8,3.16,2.93,3.77,6.37,3.36-.31-.41-.61-.76-.87-1.15s-.42-.72-.62-1.08A8.44,8.44,0,0,0,73.79,21l-.15-2.34c.44,1.54.77,3.08,2.48,3.63,1.39.46,2.86.69,4.08,1L78,23.76c1.4,1,2.51,2.48,3.69,2.55a16,16,0,0,0,6.24-1.07c2.52-.93,3.67-3.54,3.28-6.32a5.84,5.84,0,0,0-5-5C85.45,13.82,84.63,13.84,83.81,13.79ZM78.43,31.3c.6-1.35,1.16-2.52,1.63-3.73a1.1,1.1,0,0,0-.17-1c-3.36-3.66-7.33-6.08-12.48-5.95a1.39,1.39,0,0,0-1.08.62c-.42,1.21-.68,2.47-1,3.74A32.24,32.24,0,0,1,78.43,31.3Z"/><path class="cls-1" d="M83.81,13.79c.82.05,1.64,0,2.45.15a5.84,5.84,0,0,1,5,5c.39,2.78-.76,5.39-3.28,6.32a16,16,0,0,1-6.24,1.07c-1.18-.07-2.29-1.53-3.69-2.55l2.19-.53c-1.22-.28-2.69-.51-4.08-1-1.71-.55-2-2.09-2.48-3.63L73.79,21a8.44,8.44,0,0,1-5.64-3.38c.2.36.39.74.62,1.08s.56.74.87,1.15c-3.44.41-4.57-.2-6.37-3.36a5.51,5.51,0,0,1,.56-6.71,5.11,5.11,0,0,1,5.81-2L69.81,10c1.38-5,3.54-6.71,7.37-6.27C82.05,4.33,83.49,6.51,83.81,13.79Z"/><path class="cls-4" d="M107,100.92v-39c0-11.2,5.81-17.84,16.81-17.84s16.81,6.64,16.81,17.84v7.68H129.82v-8.4c0-4.77-2.28-6.75-5.71-6.75s-5.7,2-5.7,6.75v40.56c0,4.78,2.28,6.64,5.7,6.64s5.71-1.86,5.71-6.64V90.65h10.79v10.27c0,11.21-5.81,17.85-16.81,17.85S107,112.13,107,100.92Z"/><path class="cls-4" d="M149.73,100.51V62.33c0-11.62,6.13-18.26,17.33-18.26s17.33,6.64,17.33,18.26v38.18c0,11.62-6.12,18.26-17.33,18.26S149.73,112.13,149.73,100.51Zm23.24.72V61.6c0-5.18-2.28-7.16-5.91-7.16s-5.91,2-5.91,7.16v39.63c0,5.19,2.28,7.16,5.91,7.16S173,106.42,173,101.23Z"/><path class="cls-4" d="M194.13,100.51V62.33c0-11.62,6.13-18.26,17.33-18.26s17.33,6.64,17.33,18.26v38.18c0,11.62-6.12,18.26-17.33,18.26S194.13,112.13,194.13,100.51Zm23.24.72V61.6c0-5.18-2.28-7.16-5.91-7.16s-5.91,2-5.91,7.16v39.63c0,5.19,2.28,7.16,5.91,7.16S217.37,106.42,217.37,101.23Z"/><path class="cls-4" d="M239.37,45.11h11.41v30.6l14.52-30.6h11.41L263.12,71.77l13.8,46H265l-9.65-32.37-4.56,9.23v23.14H239.37Z"/><path class="cls-4" d="M302,45.11h11l5.08,55.81h.21l5.4-55.81h12.45l5.39,55.81h.21l5.08-55.81h9.86l-7.37,72.62H335.12l-5.19-49h-.21l-5.18,49H309.39Z"/><path class="cls-4" d="M364.58,100.51V62.33c0-11.62,6.12-18.26,17.32-18.26s17.33,6.64,17.33,18.26v38.18c0,11.62-6.12,18.26-17.33,18.26S364.58,112.13,364.58,100.51Zm23.24.72V61.6c0-5.18-2.28-7.16-5.92-7.16s-5.91,2-5.91,7.16v39.63c0,5.19,2.28,7.16,5.91,7.16S387.82,106.42,387.82,101.23Z"/><path class="cls-4" d="M409.81,45.11h16.91c11.83,0,16.91,5.5,16.91,16.7v4.46c0,7.47-2.39,12.24-7.47,14.32v.21c5.71,1.76,7.57,7.15,7.57,15.35v12.76c0,3.53.11,6.12,1.25,8.82H433.36c-.62-1.87-1-3-1-8.92V95.53c0-6.75-2-8.92-7.16-8.92h-3.94v31.12H409.81Zm15.56,31.12c4.26,0,6.85-1.87,6.85-7.68V63c0-5.19-1.76-7.47-5.81-7.47h-5.19V76.23Z"/><path class="cls-4" d="M454.52,45.11h11.41v62.25h18.78v10.37H454.52Z"/><path class="cls-4" d="M493.11,45.11h17.43c11.41,0,17,6.33,17,18V99.78c0,11.62-5.61,18-17,18H493.11Zm17.22,62.25c3.64,0,5.81-1.87,5.81-7.06V62.54c0-5.19-2.17-7.06-5.81-7.06h-5.81v51.88Z"/></g></g></svg>