<svg xmlns="http://www.w3.org/2000/svg" viewBox="0 0 338.01 161.42"><defs><style>.cls-1,.cls-3{fill:#009245;}.cls-2{font-size:128.93px;}.cls-2,.cls-3{font-family:Alfarn;}.cls-3{font-size:49.76px;}.cls-4{letter-spacing:-0.04em;}.cls-5{letter-spacing:-0.03em;}</style></defs><g id="Layer_2" data-name="Layer 2"><g id="Layer_1-2" data-name="Layer 1"><path class="cls-1" d="M40.33,32.69a3.64,3.64,0,0,0-3.53-1.23c-4.42.93-12.84,3.59-18,11.42-3.19,4.84-3.89,9.77-4.42,13.46-.19,1.38-1.46,11,1.94,20.34,4.22,11.66,12.86,15.18,20.78,22.64,22.42,21.12,17,53,24.82,53.25,6.19.21,13.73-19.64,14.27-37.94.6-20.55-7.71-36.43-15.51-51.34A175.17,175.17,0,0,0,40.33,32.69Z"/><path d="M123.39,90.06c-5.84,6.06-11.88,11.92-17.83,17.87L87,126.55c-1.69,1.69-3.61,2.52-5.8,1.1s-2.3-3.37-1.43-5.7c.06-.15.11-.3.17-.46l10-10.06h0a7.76,7.76,0,0,0,.89-.74c8.94-8.91,18-17.68,26.76-26.79,7.82-8.19,10.5-18.14,8.44-29.29-2.61-14.11-15.21-25.39-29.52-26.54C81,26.82,68,35.21,63,49.8,59.61,59.57,60.85,69,65.22,78.12a80.34,80.34,0,0,1,7.9,37.38c-.34,11.78-2.39,23.23-9,33.29-1,1.53-3.54,3.16-5.08,2.92s-3.13-2.66-3.73-4.44c-4-12-9-23.37-18.55-32.09-6.54-6-13.4-11.66-20.16-17.44-21-18-22.28-47.13-2.49-66,11.5-11,25.15-15.22,40.78-10a6.14,6.14,0,0,1,3.62,3.76c.26,1.21-1.37,2.94-2.37,4.29-2.82,3.82-6.61,7.17-8.47,11.39-5.54,12.5-5.65,25.1,1.2,37.43.81,1.46.87,4.31,0,5.5s-3.7,2-5.32,1.57a31.32,31.32,0,0,1-20-14.8c-1.45-2.48-1.65-4.92,1-6.62s4.69-.29,6.29,2.09c1.44,2.14,3.08,4.14,4.64,6.2-2.91-16-.32-30.5,8.82-44a43.57,43.57,0,0,0-5.17,0c-23.86,3.13-37.56,32.65-24.65,53,5,7.89,12.47,13.26,19.53,19,11.06,9,20.64,19.09,25.46,32.9A21,21,0,0,0,60.74,136l1.16,0c.93-6.12,2.28-12.21,2.71-18.37.89-12.84-1.86-25-7.32-36.7-8.71-18.68-4.45-40.34,9.92-52a41.61,41.61,0,0,1,56.18,61.19Z"/><text class="cls-2" transform="translate(140.88 109.59)">RE</text><text class="cls-3" transform="translate(144.45 153.96) scale(1.01 1)">M<tspan class="cls-4" x="44.09" y="0">A</tspan><tspan class="cls-5" x="80.71" y="0">T</tspan><tspan x="113.8" y="0">CH</tspan></text><polygon points="84.74 103.61 103.97 123.79 77.41 129.85 84.74 103.61"/></g></g></svg>